<?xml version="1.0" encoding="utf-8"?>
<!-- Generator: Adobe Illustrator 23.1.0, SVG Export Plug-In . SVG Version: 6.00 Build 0)  -->
<svg version="1.1" id="Camada_1" xmlns="http://www.w3.org/2000/svg" xmlns:xlink="http://www.w3.org/1999/xlink" x="0px" y="0px"
	 viewBox="0 0 250 106" style="enable-background:new 0 0 250 106;" xml:space="preserve">
<style type="text/css">
	.st0{fill:#E02041;}
	.st1{fill:#41414D;}
</style>
<path class="st0" d="M116.7,81.6h-6.4l3.9-13.2h-3.3L105.5,86h-6.4l10.6-35.6h6.4l-3.6,12.5h3.3L121,46h6.4L116.7,81.6z"/>
<path class="st0" d="M127.9,50.4h12.3l-1.8,5.6h-5.6l-2,6.9h5.6l-1.8,5.5h-5.5l-2.2,7.2h6l-2.2,5.9h-12L127.9,50.4z"/>
<path class="st0" d="M138.3,86h-6.5l10.3-35.6H154c1.4,0,2.3,0.4,2.8,1.2c0.5,0.8,0.6,1.7,0.3,2.8l-3.1,10.6
	c-0.2,0.5-0.4,0.9-0.9,1.3c-0.4,0.4-1.1,0.6-1.9,0.6c0.5,0.1,0.9,0.4,1.2,0.9c0.3,0.5,0.3,1.4,0,2.5l-3.3,11.4h-6.4l3.6-12.2
	c0.1-0.3,0.1-0.5,0-0.7c-0.1-0.2-0.3-0.3-0.7-0.3h-2.2L138.3,86z M146.9,63.7c0.3,0,0.6-0.1,0.9-0.2c0.3-0.2,0.5-0.5,0.6-1l1.7-5.8
	c0.3-0.9-0.1-1.3-1-1.3h-2l-2.4,8.3H146.9z"/>
<path class="st0" d="M172.8,50.4c1,0,1.7,0.4,2.2,1.1c0.5,0.7,0.6,1.6,0.3,2.5l-7.1,24.3c-0.4,1.3-1.1,2.2-2,2.6s-1.9,0.7-3,0.7
	h-7.7c-0.5,0-1-0.1-1.5-0.3c-0.5-0.2-0.8-0.5-1.1-0.8c-0.3-0.4-0.5-0.8-0.6-1.4c-0.1-0.5-0.1-1.1,0.2-1.8l7-23.9
	c0.2-0.9,0.7-1.7,1.4-2.2c0.7-0.5,1.6-0.8,2.6-0.8H172.8z M166.1,55.4c-0.3,0-0.5,0.1-0.7,0.2c-0.2,0.2-0.2,0.3-0.3,0.5l-5.7,19.4
	c-0.2,0.5,0.1,0.8,0.6,0.8h1.7c0.5,0,0.9-0.3,1-0.8l5.7-19.4c0.1-0.5-0.1-0.8-0.6-0.8L166.1,55.4L166.1,55.4z"/>
<path class="st1" d="M93.2,53.8h4.2c0.5,0,0.9,0.2,1,0.4c0.2,0.3,0.2,0.6,0.1,1l-1,3.4c-0.1,0.2-0.2,0.4-0.4,0.5
	c-0.2,0.2-0.5,0.2-0.9,0.2c0.2,0,0.4,0.1,0.5,0.1c0.1,0.1,0.2,0.2,0.3,0.3C97,60,97,60.1,97,60.3c0,0.2,0,0.3-0.1,0.4L96,63.8
	c-0.1,0.4-0.3,0.6-0.6,0.9c-0.3,0.2-0.7,0.3-1.2,0.3h-4.4L93.2,53.8z M93.6,63.1c0.1,0,0.2,0,0.3-0.1c0.1-0.1,0.2-0.2,0.2-0.3
	l0.7-2.3c0.1-0.2,0.1-0.3,0-0.4S94.6,60,94.5,60h-0.7l-0.9,3.1L93.6,63.1L93.6,63.1z M94.9,58.5c0.2,0,0.3,0,0.4-0.1
	c0.1-0.1,0.2-0.2,0.2-0.3l0.6-2c0.1-0.2,0.1-0.3,0-0.3c-0.1-0.1-0.2-0.1-0.3-0.1H95l-0.9,2.9H94.9z"/>
<path class="st1" d="M99.7,53.8h4.4l-0.6,2h-2.1l-0.7,2.5h2l-0.6,2h-2l-0.8,2.6h2.1l-0.8,2.1h-4.3L99.7,53.8z"/>
<path class="st1" d="M88.5,67l-0.6,2h-1.6l-2.7,9.2h-2.3l2.7-9.2h-1.6l0.6-2L88.5,67L88.5,67z"/>
<path class="st1" d="M91.7,78.2h-2.3l1.4-4.7h-1.2l-1.4,4.7h-2.3L89.1,67h2.3l-1.3,4.5h1.2l1.3-4.5h2.3L91.7,78.2z"/>
<path class="st1" d="M95.7,67h4.4l-0.6,2h-2.1l-0.7,2.5h2l-0.6,2h-2l-0.8,2.6h2.1l-0.8,2.1h-4.3L95.7,67z"/>
</svg>
